<?xml version="1.0" standalone="no"?>
<!DOCTYPE svg PUBLIC "-//W3C//DTD SVG 20010904//EN"
 "http://www.w3.org/TR/2001/REC-SVG-20010904/DTD/svg10.dtd">
<svg version="1.0" xmlns="http://www.w3.org/2000/svg"
 width="700.000000pt" height="700.000000pt" viewBox="0 0 700.000000 700.000000"
 preserveAspectRatio="xMidYMid meet">
<metadata>
Created by potrace 1.14, written by Peter Selinger 2001-2017
</metadata>
<g transform="translate(0.000000,700.000000) scale(0.100000,-0.100000)"
fill="#000000" stroke="none">
<path d="M1777 5544 c-1 -1 -63 -4 -137 -7 -74 -4 -146 -9 -160 -11 -27 -5
-142 -25 -175 -30 -44 -7 -178 -49 -247 -77 -549 -226 -968 -792 -1045 -1411
-10 -79 -10 -622 -1 -703 8 -64 13 -95 33 -189 7 -32 44 -156 54 -181 5 -11
21 -51 37 -90 147 -369 448 -702 797 -884 100 -52 276 -121 372 -146 183 -47
330 -60 665 -59 238 0 247 1 335 28 50 15 103 34 119 42 16 8 35 14 43 14 7 0
13 5 13 10 0 6 9 10 20 10 11 0 20 4 20 8 0 4 12 13 28 19 41 18 95 51 285
177 334 221 459 271 672 269 212 -2 326 -48 643 -257 331 -218 457 -280 627
-313 81 -16 584 -7 705 11 14 3 45 7 70 11 199 30 476 138 655 256 368 243
639 629 745 1064 41 169 47 243 47 550 0 371 -22 519 -114 765 -93 249 -229
457 -423 650 -131 130 -259 222 -415 300 -204 101 -384 147 -650 166 -70 5
-3611 13 -3618 8z"/>
</g>
</svg>
